<svg  viewBox="0 0 408 89" fill="none" xmlns="http://www.w3.org/2000/svg">
<path d="M27.7258 89C23.686 89 19.9702 88.2564 16.5783 86.7693C13.2245 85.2821 10.29 83.1849 7.77465 80.4775C5.29743 77.7701 3.37283 74.5671 2.00083 70.8683C0.666943 67.1313 0 63.0512 0 58.6279V56.1684C0 51.4019 0.705054 47.093 2.11516 43.2416C3.52527 39.3903 5.46893 36.0919 7.94615 33.3464C10.4234 30.6009 13.2436 28.5036 16.4068 27.0546C19.6081 25.5675 22.9619 24.8239 26.4681 24.8239C30.3936 24.8239 33.8807 25.5293 36.9296 26.9402C39.9785 28.313 42.5319 30.2768 44.5899 32.8316C46.686 35.3483 48.2676 38.3417 49.3347 41.8117C50.4019 45.2436 50.9354 49.0377 50.9354 53.1941V57.3695H4.11599V51.5353H44.1326V50.7346C44.0564 47.2646 43.3513 44.0234 42.0174 41.0109C40.7217 37.9604 38.778 35.4818 36.1864 33.5752C33.5949 31.6686 30.3554 30.7153 26.4681 30.7153C23.5717 30.7153 20.9039 31.3254 18.4648 32.5456C16.0638 33.7659 13.9868 35.5199 12.2336 37.8078C10.5186 40.0576 9.18476 42.7459 8.23199 45.8728C7.31732 48.9614 6.85999 52.3933 6.85999 56.1684V58.6279C6.85999 62.0598 7.35543 65.2629 8.34632 68.2372C9.37532 71.1733 10.8235 73.7663 12.691 76.0161C14.5965 78.2659 16.8451 80.0199 19.4366 81.2783C22.0282 82.5366 24.8865 83.1658 28.0116 83.1658C31.6703 83.1658 34.9097 82.4985 37.7299 81.1639C40.5501 79.7911 43.0845 77.6367 45.3331 74.7005L49.6206 78.018C48.2867 80.0009 46.6098 81.8312 44.5899 83.509C42.6081 85.1868 40.2262 86.5214 37.4441 87.5129C34.662 88.5043 31.4226 89 27.7258 89Z" fill="black"/>
<path d="M110.837 72.0694C110.837 70.3916 110.418 68.7329 109.579 67.0932C108.741 65.4535 107.121 63.9473 104.72 62.5746C102.357 61.2018 98.87 60.0388 94.2585 59.0855C90.8285 58.3228 87.7606 57.4649 85.0547 56.5116C82.3869 55.5583 80.1384 54.4143 78.309 53.0797C76.4797 51.7451 75.0887 50.1435 74.1359 48.2751C73.1831 46.4066 72.7067 44.1949 72.7067 41.6401C72.7067 39.3522 73.2022 37.1977 74.1931 35.1767C75.2221 33.1176 76.6703 31.3254 78.5377 29.8001C80.4433 28.2367 82.7299 27.0165 85.3977 26.1395C88.1036 25.2624 91.1334 24.8239 94.4872 24.8239C99.2511 24.8239 103.329 25.6437 106.721 27.2834C110.151 28.885 112.761 31.0775 114.553 33.8612C116.382 36.6448 117.297 39.7907 117.297 43.2988H110.494C110.494 41.1635 109.865 39.1425 108.607 37.2359C107.388 35.3293 105.577 33.7659 103.176 32.5456C100.814 31.3254 97.9172 30.7153 94.4872 30.7153C90.9429 30.7153 88.0655 31.2491 85.855 32.3168C83.6446 33.3845 82.0249 34.7382 80.9959 36.3779C80.005 38.0176 79.5095 39.7144 79.5095 41.4685C79.5095 42.8413 79.7192 44.0996 80.1384 45.2436C80.5957 46.3494 81.396 47.379 82.5394 48.3323C83.7208 49.2856 85.3977 50.1817 87.57 51.0206C89.7424 51.8595 92.5626 52.6793 96.0307 53.4801C101.023 54.5859 105.101 55.9396 108.264 57.5411C111.466 59.1045 113.829 61.0493 115.353 63.3753C116.877 65.6632 117.64 68.4469 117.64 71.7262C117.64 74.2811 117.106 76.6262 116.039 78.7616C114.972 80.8588 113.428 82.6701 111.408 84.1954C109.427 85.7207 107.026 86.9027 104.205 87.7416C101.423 88.5805 98.2983 89 94.8302 89C89.609 89 85.1881 88.142 81.5675 86.4261C77.9851 84.672 75.2602 82.3841 73.3927 79.5623C71.5634 76.7024 70.6487 73.6709 70.6487 70.4679H77.4515C77.6802 73.6709 78.6902 76.2067 80.4814 78.0752C82.2726 79.9055 84.464 81.202 87.0555 81.9647C89.6852 82.7273 92.2767 83.1086 94.8302 83.1086C98.3364 83.1086 101.271 82.5938 103.634 81.5643C105.997 80.5347 107.788 79.181 109.007 77.5032C110.227 75.8254 110.837 74.0141 110.837 72.0694Z" fill="black"/>
<path d="M165.879 25.9679V31.5733H134.895V25.9679H165.879ZM146.271 10.0668H153.074V72.813C153.074 75.6729 153.455 77.8273 154.217 79.2764C154.979 80.7254 155.97 81.6977 157.19 82.1935C158.409 82.6892 159.724 82.937 161.134 82.937C162.163 82.937 163.154 82.8798 164.107 82.7654C165.06 82.6129 165.917 82.4604 166.679 82.3078L166.965 88.0848C166.127 88.3518 165.041 88.5615 163.707 88.714C162.373 88.9047 161.039 89 159.705 89C157.075 89 154.751 88.5234 152.731 87.5701C150.711 86.5786 149.129 84.9008 147.986 82.5366C146.843 80.1343 146.271 76.874 146.271 72.7558V10.0668Z" fill="black"/>
<path d="M197.197 25.9679V87.856H190.394V25.9679H197.197ZM189.194 8.06491C189.194 6.76842 189.594 5.68166 190.394 4.80463C191.233 3.88946 192.376 3.43188 193.824 3.43188C195.273 3.43188 196.416 3.88946 197.254 4.80463C198.131 5.68166 198.569 6.76842 198.569 8.06491C198.569 9.32326 198.131 10.41 197.254 11.3252C196.416 12.2022 195.273 12.6407 193.824 12.6407C192.376 12.6407 191.233 12.2022 190.394 11.3252C189.594 10.41 189.194 9.32326 189.194 8.06491Z" fill="black"/>
<path d="M232.06 0V87.856H225.257V0H232.06ZM270.876 25.9679L241.949 54.6812L229.659 66.5784L228.63 59.8862L238.519 49.1902L262.244 25.9679H270.876ZM264.93 87.856L239.091 55.7108L242.864 49.8194L273.162 87.856H264.93Z" fill="black"/>
<path d="M329.634 76.7596V44.8432C329.634 41.907 329.024 39.3713 327.805 37.2359C326.585 35.1005 324.794 33.4608 322.431 32.3168C320.068 31.1729 317.152 30.6009 313.684 30.6009C310.483 30.6009 307.625 31.1729 305.109 32.3168C302.632 33.4227 300.669 34.9289 299.221 36.8355C297.811 38.7039 297.106 40.7821 297.106 43.0701L290.246 43.0129C290.246 40.6868 290.818 38.437 291.961 36.2635C293.104 34.09 294.724 32.1452 296.82 30.4293C298.916 28.7134 301.413 27.3597 304.309 26.3683C307.244 25.3387 310.464 24.8239 313.97 24.8239C318.391 24.8239 322.278 25.5675 325.632 27.0546C329.024 28.5418 331.673 30.7725 333.578 33.7468C335.484 36.7211 336.437 40.458 336.437 44.9576V74.8721C336.437 77.0075 336.589 79.2192 336.894 81.5071C337.237 83.795 337.713 85.6825 338.323 87.1697V87.856H331.063C330.606 86.4833 330.244 84.7674 329.977 82.7082C329.748 80.611 329.634 78.6281 329.634 76.7596ZM331.234 51.8213L331.349 57.0835H317.915C314.408 57.0835 311.264 57.4077 308.482 58.0559C305.738 58.666 303.413 59.5812 301.508 60.8014C299.602 61.9835 298.135 63.4135 297.106 65.0913C296.115 66.7691 295.62 68.6757 295.62 70.8111C295.62 73.0227 296.172 75.0437 297.278 76.874C298.421 78.7044 300.022 80.1725 302.08 81.2783C304.176 82.346 306.653 82.8798 309.511 82.8798C313.322 82.8798 316.676 82.1744 319.573 80.7635C322.507 79.3526 324.927 77.5032 326.833 75.2153C328.738 72.9274 330.015 70.4297 330.663 67.7224L333.635 71.669C333.14 73.5756 332.225 75.5394 330.891 77.5604C329.596 79.5433 327.9 81.4117 325.804 83.1658C323.708 84.8817 321.23 86.2926 318.372 87.3985C315.552 88.4662 312.35 89 308.768 89C304.728 89 301.203 88.2374 298.192 86.7121C295.22 85.1868 292.895 83.1086 291.218 80.4775C289.579 77.8083 288.76 74.7958 288.76 71.4402C288.76 68.3897 289.408 65.6632 290.703 63.2609C291.999 60.8205 293.867 58.7614 296.306 57.0835C298.783 55.3676 301.756 54.0711 305.224 53.1941C308.73 52.2789 312.655 51.8213 317 51.8213H331.234Z" fill="black"/>
<path d="M401.197 72.0694C401.197 70.3916 400.778 68.7329 399.94 67.0932C399.101 65.4535 397.481 63.9473 395.08 62.5746C392.717 61.2018 389.23 60.0388 384.619 59.0855C381.189 58.3228 378.121 57.4649 375.415 56.5116C372.747 55.5583 370.499 54.4143 368.669 53.0797C366.84 51.7451 365.449 50.1435 364.496 48.2751C363.543 46.4066 363.067 44.1949 363.067 41.6401C363.067 39.3522 363.563 37.1977 364.553 35.1767C365.582 33.1176 367.031 31.3254 368.898 29.8001C370.804 28.2367 373.09 27.0165 375.758 26.1395C378.464 25.2624 381.494 24.8239 384.848 24.8239C389.611 24.8239 393.689 25.6437 397.081 27.2834C400.511 28.885 403.122 31.0775 404.913 33.8612C406.742 36.6448 407.657 39.7907 407.657 43.2988H400.854C400.854 41.1635 400.225 39.1425 398.968 37.2359C397.748 35.3293 395.938 33.7659 393.537 32.5456C391.174 31.3254 388.278 30.7153 384.848 30.7153C381.303 30.7153 378.426 31.2491 376.215 32.3168C374.005 33.3845 372.385 34.7382 371.356 36.3779C370.365 38.0176 369.87 39.7144 369.87 41.4685C369.87 42.8413 370.079 44.0996 370.499 45.2436C370.956 46.3494 371.756 47.379 372.9 48.3323C374.081 49.2856 375.758 50.1817 377.93 51.0206C380.103 51.8595 382.923 52.6793 386.391 53.4801C391.384 54.5859 395.461 55.9396 398.625 57.5411C401.826 59.1045 404.189 61.0493 405.713 63.3753C407.238 65.6632 408 68.4469 408 71.7262C408 74.2811 407.466 76.6262 406.399 78.7616C405.332 80.8588 403.789 82.6701 401.769 84.1954C399.787 85.7207 397.386 86.9027 394.566 87.7416C391.784 88.5805 388.659 89 385.191 89C379.969 89 375.548 88.142 371.928 86.4261C368.345 84.672 365.621 82.3841 363.753 79.5623C361.924 76.7024 361.009 73.6709 361.009 70.4679H367.812C368.041 73.6709 369.051 76.2067 370.842 78.0752C372.633 79.9055 374.824 81.202 377.416 81.9647C380.046 82.7273 382.637 83.1086 385.191 83.1086C388.697 83.1086 391.631 82.5938 393.994 81.5643C396.357 80.5347 398.148 79.181 399.368 77.5032C400.587 75.8254 401.197 74.0141 401.197 72.0694Z" fill="black"/>
</svg>
